<svg width="50" height="50" viewBox="0 0 50 50" fill="none" xmlns="http://www.w3.org/2000/svg">
<path d="M42.1875 0H7.8125C3.49778 0 0 3.49778 0 7.8125V42.1875C0 46.5022 3.49778 50 7.8125 50H42.1875C46.5022 50 50 46.5022 50 42.1875V7.8125C50 3.49778 46.5022 0 42.1875 0Z" fill="black"/>
<path d="M37.5 25C37.5 18.125 31.875 12.5 25 12.5C18.125 12.5 12.5 18.125 12.5 25C12.5 31.25 17.0312 36.4062 22.9688 37.3438V28.5937H19.8437V25H22.9688V22.1875C22.9688 19.0625 24.8438 17.3438 27.6563 17.3438C29.0625 17.3438 30.4688 17.6563 30.4688 17.6563V20.7812H28.9062C27.3438 20.7812 26.875 21.7188 26.875 22.6562V25H30.3125L29.6875 28.5937H26.7188V37.5C32.9688 36.5625 37.5 31.25 37.5 25Z" fill="white"/>
</svg>
