<svg width="56" height="56" viewBox="0 0 56 56" fill="none" xmlns="http://www.w3.org/2000/svg">
<path fill-rule="evenodd" clip-rule="evenodd" d="M19.2254 15.9238C17.482 15.9238 16.1919 17.4498 16.2497 19.1047C16.3051 20.6946 16.2331 22.7538 15.7147 24.433C15.1945 26.117 14.3153 27.1841 12.879 27.3211V28.8674C14.3153 29.0047 15.1945 30.0713 15.7147 31.7555C16.2331 33.4347 16.3051 35.4939 16.2496 37.0838C16.1918 38.7384 17.4819 40.2647 19.2257 40.2647H37.0904C38.8338 40.2647 40.1236 38.7387 40.0659 37.0838C40.0104 35.4939 40.0825 33.4347 40.6008 31.7555C41.1211 30.0713 41.9981 29.0043 43.4345 28.8674V27.3211C41.9982 27.1838 41.1211 26.1172 40.6008 24.433C40.0824 22.754 40.0104 20.6946 40.0659 19.1047C40.1236 17.4501 38.8338 15.9238 37.0904 15.9238H19.2252H19.2254ZM33.5946 30.9072C33.5946 33.1859 31.8949 34.5679 29.0742 34.5679H24.2725C24.1352 34.5679 24.0035 34.5133 23.9063 34.4162C23.8092 34.3191 23.7546 34.1874 23.7546 34.05V22.1385C23.7546 22.0012 23.8092 21.8695 23.9063 21.7723C24.0035 21.6752 24.1352 21.6206 24.2725 21.6206H29.0468C31.3988 21.6206 32.9424 22.8947 32.9424 24.8507C32.9424 26.2236 31.904 27.4527 30.5811 27.668V27.7396C32.382 27.9372 33.5946 29.1845 33.5946 30.9072V30.9072ZM28.5506 23.2624H25.8128V27.1295H28.1187C29.9013 27.1295 30.8842 26.4117 30.8842 25.1287C30.8841 23.9263 30.039 23.2624 28.5506 23.2624ZM25.8128 28.6639V32.9257H28.6513C30.5074 32.9257 31.4904 32.1809 31.4904 30.7813C31.4904 29.3818 30.4798 28.6637 28.532 28.6637H25.8128V28.6639Z" fill="#7952B3"/>
</svg>
