<svg width="58" height="55" viewBox="0 0 58 55" fill="none" xmlns="http://www.w3.org/2000/svg">
<path d="M57.265 0H0.777039V54.6296H57.265V0Z" fill="#F7DF1E"/>
<path d="M38.7226 42.6796C39.8604 44.4763 41.3408 45.797 43.9589 45.797C46.1584 45.797 47.5634 44.7339 47.5634 43.2649C47.5634 41.5047 46.1198 40.8812 43.6989 39.8571L42.3719 39.3065C38.5415 37.7283 35.9968 35.7512 35.9968 31.5716C35.9968 27.7215 39.0301 24.7906 43.7706 24.7906C47.1456 24.7906 49.5719 25.9265 51.3203 28.9008L47.1868 31.4676C46.2767 29.8894 45.2949 29.2676 43.7706 29.2676C42.2159 29.2676 41.2305 30.2215 41.2305 31.4676C41.2305 33.0076 42.2168 33.6311 44.4942 34.5849L45.8213 35.1347C50.3313 37.0051 52.8778 38.9119 52.8778 43.199C52.8778 47.8209 49.1236 50.3529 44.0818 50.3529C39.1521 50.3529 35.9672 48.081 34.4089 45.1033L38.7226 42.6796ZM19.9713 43.1245C20.8051 44.5552 21.5637 45.7649 23.3875 45.7649C25.1314 45.7649 26.2316 45.105 26.2316 42.5392V25.0837H31.5397V42.6085C31.5397 47.9241 28.3171 50.3434 23.6134 50.3434C19.3634 50.3434 16.9021 48.2163 15.6504 45.6543L19.9713 43.1245Z" fill="black"/>
</svg>
