<svg width="56" height="56" viewBox="0 0 56 56" fill="none" xmlns="http://www.w3.org/2000/svg">
<path d="M42.6924 19.3819C42.7034 19.4224 42.709 19.4641 42.7091 19.5061V26.0248C42.7091 26.1085 42.687 26.1907 42.6451 26.2631C42.6031 26.3355 42.5428 26.3955 42.4702 26.4371L36.9989 29.5872V35.8309C36.9989 36.0008 36.9086 36.1577 36.7613 36.2432L25.3404 42.8178C25.3142 42.8327 25.2857 42.8422 25.2572 42.8523C25.2465 42.8559 25.2364 42.8624 25.2251 42.8654C25.1453 42.8864 25.0614 42.8864 24.9815 42.8654C24.9685 42.8618 24.9566 42.8547 24.9441 42.8499C24.918 42.8404 24.8906 42.8321 24.8657 42.8178L13.4472 36.2432C13.3746 36.2015 13.3143 36.1415 13.2724 36.0691C13.2305 35.9967 13.2084 35.9146 13.2083 35.8309V16.2746C13.2083 16.2318 13.2143 16.1902 13.2249 16.1498C13.2285 16.1362 13.2368 16.1237 13.2416 16.11C13.2505 16.0851 13.2588 16.0595 13.2719 16.0364C13.2808 16.0209 13.2939 16.0084 13.3046 15.9942C13.3182 15.9752 13.3307 15.9556 13.3467 15.9389C13.3604 15.9253 13.3782 15.9152 13.3937 15.9033C13.4109 15.889 13.4264 15.8736 13.446 15.8623H13.4466L19.1561 12.575C19.2284 12.5334 19.3104 12.5115 19.3938 12.5115C19.4772 12.5115 19.5591 12.5334 19.6314 12.575L25.341 15.8623H25.3422C25.3612 15.8742 25.3772 15.889 25.3944 15.9027C25.4099 15.9146 25.4271 15.9253 25.4408 15.9383C25.4574 15.9556 25.4693 15.9752 25.4836 15.9942C25.4937 16.0084 25.5073 16.0209 25.5156 16.0364C25.5293 16.0601 25.537 16.0851 25.5465 16.11C25.5513 16.1237 25.5596 16.1362 25.5632 16.1504C25.5741 16.1909 25.5797 16.2327 25.5798 16.2746V28.4893L30.3376 25.7497V19.5055C30.3376 19.4639 30.3435 19.4217 30.3542 19.3819C30.3584 19.3676 30.3661 19.3552 30.3708 19.3415C30.3804 19.3165 30.3887 19.291 30.4017 19.2678C30.4107 19.2524 30.4237 19.2399 30.4338 19.2256C30.4481 19.2066 30.46 19.187 30.4766 19.1704C30.4903 19.1567 30.5075 19.1466 30.5229 19.1347C30.5408 19.1205 30.5562 19.105 30.5752 19.0937H30.5758L36.286 15.8064C36.3582 15.7648 36.4402 15.7428 36.5236 15.7428C36.607 15.7428 36.689 15.7648 36.7613 15.8064L42.4708 19.0937C42.491 19.1056 42.5065 19.1205 42.5243 19.1341C42.5392 19.146 42.5564 19.1567 42.5701 19.1698C42.5867 19.187 42.5986 19.2066 42.6128 19.2256C42.6235 19.2399 42.6366 19.2524 42.6449 19.2678C42.6586 19.291 42.6663 19.3165 42.6758 19.3415C42.6812 19.3552 42.6889 19.3676 42.6924 19.3819V19.3819ZM41.7573 25.7497V20.3289L39.7592 21.4792L36.9989 23.0684V28.4893L41.7579 25.7497H41.7573ZM36.0477 35.5558V30.1314L33.3326 31.6821L25.5792 36.1072V41.5826L36.0477 35.5558ZM14.1601 17.0975V35.5558L24.6274 41.582V36.1078L19.1591 33.0129L19.1573 33.0118L19.1549 33.0106C19.1365 32.9999 19.1211 32.9844 19.1038 32.9714C19.089 32.9595 19.0717 32.95 19.0587 32.9369L19.0575 32.9351C19.042 32.9203 19.0313 32.9018 19.0183 32.8852C19.0064 32.8692 18.9921 32.8555 18.9826 32.8389L18.982 32.8371C18.9713 32.8193 18.9648 32.7979 18.9571 32.7777C18.9494 32.7599 18.9393 32.7432 18.9345 32.7242V32.7236C18.9286 32.701 18.9274 32.6773 18.925 32.6541C18.9226 32.6363 18.9179 32.6184 18.9179 32.6006V19.837L16.1582 18.2471L14.1601 17.0981V17.0975ZM19.3944 13.5363L14.6372 16.2746L19.3932 19.0129L24.1497 16.274L19.3932 13.5363H19.3944ZM21.8683 30.6257L24.628 29.037V17.0975L22.63 18.2477L19.8697 19.837V31.7766L21.8683 30.6257ZM36.5236 16.7677L31.767 19.5061L36.5236 22.2444L41.2796 19.5055L36.5236 16.7677ZM36.0477 23.0684L33.2874 21.4792L31.2894 20.3289V25.7497L34.0491 27.3384L36.0477 28.4893V23.0684ZM25.1027 35.2843L32.0796 31.3013L35.5671 29.3109L30.8141 26.5744L25.3416 29.725L20.3539 32.5965L25.1027 35.2843Z" fill="#FF2D20"/>
</svg>
