<svg width="55" height="56" viewBox="0 0 55 56" fill="none" xmlns="http://www.w3.org/2000/svg">
<path fill-rule="evenodd" clip-rule="evenodd" d="M30.2137 12.5002C29.9927 12.5002 29.7876 12.5475 29.5982 12.6107C30.0006 12.879 30.2216 13.234 30.3321 13.6365C30.34 13.6917 30.3557 13.7312 30.3636 13.7864C30.3715 13.8338 30.3794 13.8811 30.3794 13.9285C30.411 14.6229 30.1979 14.7097 30.048 15.12C29.8191 15.6487 29.8823 16.2169 30.1585 16.6745C30.1821 16.7298 30.2137 16.7929 30.2531 16.8481C29.9533 14.8517 31.6183 14.5518 31.926 13.9285C31.9497 13.384 31.4999 13.021 31.1448 12.7685C30.8055 12.5633 30.4978 12.5002 30.2137 12.5002ZM32.723 12.95C32.6915 13.1315 32.7151 13.0841 32.7073 13.1788C32.6994 13.2419 32.6994 13.3209 32.6915 13.384C32.6757 13.4471 32.6599 13.5102 32.6363 13.5734C32.6205 13.6365 32.5968 13.6996 32.5731 13.7627C32.5416 13.8259 32.5179 13.8811 32.4863 13.9442C32.4627 13.9758 32.4469 14.0074 32.4232 14.0389C32.4074 14.0626 32.3916 14.0863 32.3759 14.11C32.3364 14.1652 32.2969 14.2204 32.2575 14.2678C32.2101 14.3151 32.1707 14.3704 32.1154 14.4098V14.4177C32.0681 14.4572 32.0208 14.5045 31.9655 14.544C31.7998 14.6702 31.6104 14.7649 31.4368 14.8833C31.3816 14.9227 31.3263 14.9543 31.279 15.0016C31.2238 15.0411 31.1764 15.0806 31.1291 15.1279C31.0738 15.1752 31.0344 15.2226 30.987 15.2778C30.9476 15.3252 30.9002 15.3804 30.8687 15.4357C30.8292 15.4909 30.7898 15.5461 30.7582 15.6014C30.7266 15.6645 30.703 15.7197 30.6714 15.7829C30.6477 15.846 30.624 15.9012 30.6083 15.9643C30.5846 16.0354 30.5688 16.0985 30.553 16.1616C30.5451 16.1932 30.5451 16.2326 30.5373 16.2642C30.5293 16.2958 30.5293 16.3273 30.5215 16.3589C30.5215 16.422 30.5136 16.493 30.5136 16.5562C30.5136 16.6035 30.5136 16.6509 30.5215 16.6982C30.5215 16.7613 30.5294 16.8245 30.5452 16.8955C30.5531 16.9586 30.5688 17.0217 30.5846 17.0849C30.6083 17.148 30.6241 17.2111 30.6477 17.2743C30.6635 17.3137 30.6872 17.3532 30.703 17.3847L28.8881 16.6824C28.5803 16.5956 28.2804 16.5167 27.9727 16.4457C27.807 16.4062 27.6413 16.3668 27.4756 16.3273C27.0021 16.2326 26.5207 16.1616 26.0394 16.1143C26.0236 16.1143 26.0157 16.1064 25.9999 16.1064C25.5265 16.059 25.0609 16.0354 24.5874 16.0354C24.2402 16.0354 23.893 16.0511 23.5537 16.0748C23.0724 16.1064 22.591 16.1695 22.1097 16.2484C21.9913 16.2642 21.8729 16.2879 21.7546 16.3115C21.5099 16.3589 21.2732 16.4141 21.0444 16.4694C20.926 16.5009 20.8076 16.5325 20.6893 16.5641C20.5709 16.6114 20.4604 16.6666 20.35 16.714C20.2632 16.7534 20.1764 16.7929 20.0896 16.8324C20.0738 16.8403 20.058 16.8403 20.0501 16.8481C19.9712 16.8876 19.9002 16.9191 19.8292 16.9586C19.8055 16.9665 19.7897 16.9744 19.7739 16.9823C19.6871 17.0217 19.6003 17.0691 19.5293 17.1085C19.4741 17.1322 19.4188 17.1638 19.3715 17.1874C19.3478 17.2032 19.3162 17.219 19.3005 17.2269C19.2294 17.2663 19.1584 17.3058 19.0953 17.3453C19.0243 17.3847 18.9611 17.4242 18.9059 17.4636C18.8507 17.5031 18.7954 17.5346 18.7481 17.5741C18.7402 17.582 18.7323 17.582 18.7244 17.5899C18.6771 17.6214 18.6218 17.6609 18.5745 17.7003C18.5745 17.7003 18.5666 17.7082 18.5587 17.7161C18.5193 17.7477 18.4798 17.7792 18.4404 17.8108C18.4246 17.8187 18.4088 17.8345 18.393 17.8424C18.3536 17.874 18.3141 17.9134 18.2746 17.945C18.2667 17.9607 18.251 17.9686 18.2431 17.9765C18.1957 18.0239 18.1484 18.0633 18.101 18.1107C18.0931 18.1107 18.0931 18.1186 18.0853 18.1265C18.0379 18.1659 17.9906 18.2133 17.9432 18.2606C17.9353 18.2685 17.9353 18.2764 17.9274 18.2764C17.888 18.3158 17.8485 18.3553 17.8091 18.4026C17.7933 18.4184 17.7696 18.4342 17.7538 18.45C17.7144 18.4973 17.667 18.5447 17.6197 18.592C17.6118 18.6078 17.596 18.6157 17.5881 18.6315C17.525 18.6946 17.4698 18.7577 17.4066 18.8209C17.3987 18.8288 17.3909 18.8366 17.383 18.8445C17.2567 18.9787 17.1225 19.1128 16.9805 19.2312C16.8385 19.3574 16.6885 19.4758 16.5386 19.5784C16.3808 19.6889 16.2309 19.7836 16.0652 19.8783C15.9073 19.965 15.7416 20.044 15.568 20.115C15.4023 20.186 15.2287 20.2491 15.0551 20.3044C14.7237 20.3754 14.3844 20.5095 14.0924 20.5332C14.0293 20.5332 13.9583 20.549 13.8951 20.5569C13.8241 20.5726 13.761 20.5885 13.6979 20.6042C13.6347 20.6279 13.5716 20.6516 13.5085 20.6752C13.4453 20.6989 13.3822 20.7305 13.3191 20.762C13.2638 20.8015 13.2007 20.8331 13.1455 20.8725C13.0902 20.912 13.035 20.9593 12.9877 21.0067C12.9324 21.0461 12.8772 21.1014 12.8298 21.1487C12.7825 21.2039 12.7351 21.2513 12.6957 21.3065C12.6562 21.3696 12.6089 21.4249 12.5773 21.488C12.5379 21.5433 12.4984 21.6064 12.4668 21.6695C12.4353 21.7405 12.4037 21.8037 12.38 21.8747C12.3564 21.9378 12.3327 22.0088 12.309 22.0798C12.2933 22.143 12.2775 22.2061 12.2696 22.2692C12.2696 22.2771 12.2617 22.285 12.2617 22.2929C12.2459 22.3639 12.2459 22.4586 12.238 22.506C12.2301 22.5612 12.2222 22.6085 12.2222 22.6638C12.2222 22.6954 12.2222 22.7348 12.2301 22.7664C12.238 22.8216 12.2459 22.8689 12.2617 22.9163C12.2775 22.9636 12.2933 23.011 12.3169 23.0583V23.0662C12.3406 23.1136 12.3722 23.1609 12.4037 23.2083C12.4353 23.2556 12.4669 23.303 12.5063 23.3503C12.5458 23.3898 12.5931 23.4371 12.6405 23.4766C12.6878 23.5239 12.7352 23.5634 12.7904 23.6028C12.9798 23.7685 13.0271 23.8238 13.2718 23.95C13.3112 23.9737 13.3507 23.9895 13.398 24.0132C13.4059 24.0132 13.4138 24.0211 13.4217 24.0211C13.4217 24.0368 13.4217 24.0447 13.4296 24.0605C13.4375 24.1236 13.4533 24.1868 13.469 24.2499C13.4848 24.3209 13.5085 24.3841 13.5322 24.4393C13.5559 24.4866 13.5716 24.534 13.5953 24.5813C13.6032 24.5971 13.6111 24.6129 13.619 24.6208C13.6506 24.6839 13.6821 24.7391 13.7137 24.7944C13.7531 24.8496 13.7926 24.9049 13.832 24.9601C13.8715 25.0074 13.9188 25.0627 13.9662 25.11C14.0135 25.1574 14.0609 25.1968 14.1161 25.2442C14.1161 25.2442 14.124 25.2521 14.1319 25.2521C14.1792 25.2915 14.2266 25.331 14.2739 25.3626C14.3292 25.402 14.3844 25.4336 14.4475 25.4651C14.5028 25.4967 14.5659 25.5283 14.629 25.5519C14.6764 25.5756 14.7316 25.5914 14.7868 25.6072C14.7947 25.6151 14.8026 25.6151 14.8184 25.6229C14.85 25.6309 14.8894 25.6387 14.921 25.6466C14.8973 26.0727 14.8894 26.4752 14.9526 26.6172C15.0236 26.775 15.3708 26.2937 15.718 25.7413C15.6707 26.2858 15.6391 26.925 15.718 27.1144C15.8048 27.3116 16.2783 26.6961 16.6886 26.0175C22.2833 24.7234 27.3888 28.59 27.9254 34.0506C27.8228 33.1983 26.7733 32.7249 26.292 32.8432C26.0552 33.4272 25.6528 34.1768 25.0057 34.6424C25.061 34.1216 25.0373 33.585 24.9268 33.0642C24.7532 33.7902 24.4139 34.4688 23.9483 35.0527C23.1987 35.1079 22.449 34.745 22.0545 34.2005C22.0229 34.1768 22.015 34.1295 21.9914 34.0979C21.9677 34.0427 21.944 33.9874 21.9282 33.9322C21.9046 33.877 21.8888 33.8217 21.8809 33.7665C21.873 33.7112 21.873 33.656 21.873 33.5929C21.873 33.5534 21.873 33.514 21.873 33.4745C21.8809 33.4193 21.8967 33.364 21.9124 33.3088C21.9282 33.2536 21.944 33.1983 21.9677 33.1431C21.9993 33.0879 22.0229 33.0326 22.0624 32.9774C22.1965 32.5986 22.1965 32.2909 21.9519 32.1094C21.9045 32.0778 21.8572 32.0541 21.802 32.0305C21.7704 32.0226 21.7309 32.0068 21.6994 31.9989C21.6757 31.991 21.6599 31.9831 21.6363 31.9752C21.581 31.9594 21.5258 31.9436 21.4705 31.9357C21.4153 31.92 21.3601 31.9121 21.3048 31.9121C21.2496 31.9042 21.1865 31.8963 21.1312 31.8963C21.0918 31.8963 21.0523 31.9042 21.0129 31.9042C20.9497 31.9042 20.8945 31.9121 20.8393 31.9279C20.784 31.9358 20.7288 31.9436 20.6735 31.9595C20.6183 31.9752 20.5631 31.991 20.5078 32.0147C20.4526 32.0384 20.4053 32.062 20.35 32.0857C20.3027 32.1094 20.2553 32.1409 20.2001 32.1646C18.3615 33.3641 19.4583 36.1733 20.713 36.986C20.2395 37.0728 19.7582 37.1754 19.624 37.278C19.6161 37.2859 19.6083 37.2938 19.6083 37.2938C19.9476 37.4989 20.3027 37.6725 20.6736 37.8225C21.1786 37.9882 21.7152 38.1381 21.9519 38.2012V38.2091C22.6069 38.3433 23.2697 38.3906 23.9404 38.3512C27.4362 38.1066 30.3006 35.4473 30.8214 31.9437C30.8372 32.0147 30.853 32.0778 30.8688 32.1488C30.8924 32.2909 30.924 32.4408 30.9398 32.5907V32.5986C30.9555 32.6697 30.9634 32.7407 30.9714 32.8038V32.8354C30.9793 32.9064 30.9871 32.9774 30.9871 33.0406C30.995 33.1274 31.0029 33.2142 31.0029 33.301V33.4272C31.0029 33.4667 31.0108 33.514 31.0108 33.5535C31.0108 33.6008 31.0029 33.6482 31.0029 33.6955V33.806C31.0029 33.8612 30.995 33.9086 30.995 33.9638C30.995 33.9954 30.995 34.0269 30.9871 34.0664C30.9871 34.1216 30.9792 34.1769 30.9792 34.24C30.9713 34.2637 30.9713 34.2873 30.9713 34.311C30.9634 34.3741 30.9555 34.4294 30.9476 34.4925C30.9476 34.5162 30.9476 34.5399 30.9397 34.5635C30.9318 34.6424 30.916 34.7135 30.9081 34.7924V34.8003V34.8082C30.8923 34.8792 30.8765 34.9581 30.8608 35.0291V35.0528C30.845 35.1238 30.8292 35.1948 30.8134 35.2659C30.8134 35.2738 30.8055 35.2895 30.8055 35.2974C30.7897 35.3684 30.7739 35.4395 30.7503 35.5105V35.5342C30.7266 35.6131 30.7029 35.6841 30.6872 35.7551C30.6793 35.763 30.6793 35.7709 30.6793 35.7709C30.6556 35.8498 30.6319 35.9287 30.6082 36.0076C30.5767 36.0865 30.553 36.1575 30.5214 36.2364C30.4899 36.3154 30.4662 36.3943 30.4346 36.4653C30.4031 36.5442 30.3715 36.6152 30.3399 36.6941H30.332C30.3005 36.7651 30.2689 36.8441 30.2294 36.9151C30.2215 36.9387 30.2137 36.9545 30.2058 36.9703C30.1979 36.9782 30.1979 36.9861 30.19 36.994C29.6771 38.0277 28.9195 38.9352 27.9726 39.6454C27.9095 39.6848 27.8464 39.7322 27.7832 39.7795C27.7675 39.7953 27.7438 39.8032 27.728 39.819C27.6728 39.8584 27.6175 39.8979 27.5544 39.9373L27.5781 39.9847H27.586C27.6964 39.9689 27.8069 39.9531 27.9174 39.9373H27.9253C28.1305 39.9058 28.3356 39.8663 28.5408 39.8269C28.596 39.8189 28.6592 39.8032 28.7144 39.7874C28.7539 39.7795 28.7854 39.7716 28.8249 39.7637C28.8801 39.7558 28.9354 39.7401 28.9906 39.7322C29.0379 39.7164 29.0853 39.7085 29.1326 39.6927C29.9217 39.5033 30.6872 39.2429 31.421 38.9352C30.1664 40.6475 28.4856 42.0284 26.5207 42.9359C27.4282 42.8728 28.3356 42.7229 29.2115 42.4703C32.3916 41.5313 35.0667 39.3928 36.6685 36.5126C36.345 38.3354 35.619 40.0715 34.5459 41.5865C35.3113 41.0815 36.0136 40.4976 36.6528 39.8347C38.4204 37.9882 39.5803 35.6446 39.9749 33.1274C40.2432 34.3742 40.3221 35.6604 40.2037 36.9308C45.901 28.9846 40.6772 20.7464 38.4914 18.5763C38.4835 18.5606 38.4756 18.5527 38.4756 18.5369C38.4677 18.5448 38.4677 18.5448 38.4677 18.5527C38.4677 18.5447 38.4677 18.5447 38.4598 18.5369C38.4598 18.6316 38.4519 18.7263 38.444 18.821C38.4203 19.0025 38.3967 19.1761 38.3651 19.3497C38.3257 19.5233 38.2783 19.6969 38.231 19.8705C38.1757 20.0362 38.1126 20.2098 38.0416 20.3755C37.9706 20.5333 37.8916 20.699 37.8048 20.8568C37.718 21.0068 37.6234 21.1646 37.5208 21.3066C37.4182 21.4566 37.3077 21.5986 37.1972 21.7327C37.0789 21.8748 36.9526 22.001 36.8264 22.1273C36.7475 22.1983 36.6764 22.2614 36.5975 22.3246C36.5344 22.3798 36.4792 22.4272 36.416 22.4824C36.274 22.5929 36.132 22.6954 35.9741 22.7901C35.8242 22.8848 35.6664 22.9795 35.5086 23.0584C35.3429 23.1373 35.1771 23.2084 35.0114 23.2794C34.8457 23.3425 34.6721 23.3977 34.4985 23.4451C34.3249 23.4924 34.1434 23.5319 33.9698 23.5635C33.7883 23.595 33.6068 23.6108 33.4332 23.6266C33.307 23.6345 33.1807 23.6424 33.0545 23.6424C32.873 23.6424 32.6915 23.6266 32.5179 23.6108C32.3364 23.595 32.1549 23.5713 31.9813 23.5319C31.7998 23.5003 31.6262 23.453 31.4526 23.3977H31.4447C31.6183 23.382 31.7919 23.3661 31.9655 23.3346C32.147 23.303 32.3206 23.2636 32.4942 23.2162C32.6678 23.1689 32.8414 23.1136 33.0071 23.0505C33.1807 22.9874 33.3464 22.9085 33.5042 22.8296C33.6699 22.7507 33.8199 22.6639 33.9777 22.5692C34.1276 22.4666 34.2776 22.364 34.4196 22.2535C34.5616 22.143 34.6958 22.0247 34.822 21.8984C34.9562 21.7801 35.0745 21.6459 35.1929 21.5118C35.3113 21.3697 35.4218 21.2277 35.5243 21.0857C35.5401 21.062 35.5559 21.0304 35.5717 21.0067C35.6506 20.8805 35.7295 20.7542 35.8005 20.628C35.8873 20.4702 35.9662 20.3123 36.0372 20.1466C36.1083 19.9809 36.1714 19.8152 36.2266 19.6416C36.2819 19.4759 36.3213 19.3023 36.3608 19.1287C36.3924 18.9472 36.4239 18.7736 36.4397 18.6C36.4555 18.4185 36.4713 18.237 36.4713 18.0634C36.4713 17.9371 36.4634 17.8109 36.4555 17.6846C36.4397 17.5031 36.416 17.3295 36.3924 17.1559C36.3608 16.9744 36.3214 16.8008 36.274 16.6272C36.2188 16.4615 36.1635 16.2879 36.1004 16.1222C36.0373 15.9565 35.9584 15.7908 35.8795 15.633C35.7927 15.4751 35.7059 15.3173 35.6112 15.1674C35.5086 15.0175 35.406 14.8754 35.2955 14.7334C35.1772 14.5992 35.0588 14.4651 34.9325 14.3309C34.8694 14.2678 34.7984 14.1968 34.7274 14.1337C34.3723 13.8575 34.0014 13.5971 33.6305 13.3603C33.5753 13.3288 33.5279 13.3051 33.4727 13.2814C33.2123 13.1157 32.9677 13.0289 32.723 12.95Z" fill="#E0234E"/>
</svg>
