<svg width="56" height="56" viewBox="0 0 56 56" fill="none" xmlns="http://www.w3.org/2000/svg">
<path d="M25.483 1.10606C26.9858 0.32546 28.9432 0.321934 30.4447 1.10606C37.9988 4.97948 45.5552 8.84683 53.108 12.7226C54.5286 13.4487 55.4788 14.8834 55.4643 16.3688V39.6728C55.4749 41.2197 54.4308 42.6886 52.9321 43.3983C45.4028 47.2504 37.8775 51.1071 30.3495 54.9592C28.8156 55.7551 26.8189 55.6938 25.3329 54.8327C23.0757 53.6452 20.8145 52.4636 18.5571 51.2774C18.0958 51.0278 17.5757 50.8292 17.25 50.4233C17.538 50.0711 18.0528 50.0272 18.4711 49.8734C19.4134 49.6016 20.2788 49.1651 21.1444 48.7416C21.3632 48.6057 21.6305 48.6578 21.8403 48.7794C23.7705 49.7837 25.6837 50.8172 27.6204 51.8119C28.0336 52.0284 28.4519 51.741 28.8051 51.5624C36.1935 47.773 43.5911 43.9979 50.9783 40.2073C51.252 40.0878 51.4033 39.8242 51.3811 39.5521C51.3863 31.8646 51.3824 24.1758 51.3837 16.4883C51.415 16.1796 51.2181 15.8957 50.9105 15.7694C43.4074 11.9349 35.9082 8.09463 28.4064 4.25921C28.2764 4.17813 28.1224 4.13462 27.9647 4.13441C27.807 4.1342 27.6529 4.1773 27.5226 4.25804C20.0208 8.09463 12.5229 11.9385 5.02106 15.7727C4.71453 15.8993 4.50882 16.1784 4.5453 16.4883C4.54659 24.1758 4.5453 31.8646 4.5453 39.5533C4.53229 39.686 4.56442 39.8192 4.63737 39.9349C4.71031 40.0506 4.82056 40.1432 4.95328 40.2003C6.95517 41.2304 8.95966 42.2533 10.9628 43.28C12.0914 43.8312 13.477 44.1587 14.7203 43.7364C15.8176 43.3793 16.5867 42.3632 16.5657 41.306C16.5761 33.6634 16.5606 26.0196 16.5735 18.3782C16.5461 18.0389 16.9008 17.7586 17.2643 17.7905C18.2261 17.7846 19.1893 17.7788 20.1512 17.7929C20.5527 17.7846 20.829 18.15 20.7793 18.4918C20.7755 26.1828 20.7897 33.874 20.7729 41.565C20.7755 43.6147 19.8475 45.8451 17.7582 46.848C15.1842 48.058 12.0029 47.8014 9.46002 46.6412C7.25867 45.6441 5.15791 44.4674 2.99563 43.3993C1.49303 42.6935 0.454086 41.2187 0.464663 39.673V16.3688C0.448905 14.8526 1.4369 13.3919 2.90173 12.6764C10.4297 8.82116 17.9563 4.96302 25.483 1.10606Z" fill="#8CC84B"/>
<path d="M32.0504 17.2488C35.3336 17.057 38.8485 17.1352 41.803 18.603C44.0905 19.7277 45.3586 22.0883 45.399 24.3945C45.3351 24.7055 44.9768 24.8771 44.6495 24.8558C43.6969 24.8546 42.7441 24.8675 41.7915 24.8499C41.3874 24.864 41.1526 24.5259 41.1019 24.2017C40.8281 23.0983 40.165 22.0055 39.0205 21.4733C37.2636 20.675 35.2266 20.7152 33.3108 20.7318C31.9122 20.7992 30.4083 20.9091 29.2235 21.6554C28.3138 22.2208 28.0375 23.362 28.3622 24.2811C28.6683 24.941 29.5078 25.1539 30.1946 25.3502C34.1514 26.2893 38.3442 26.1958 42.2254 27.4317C43.8323 27.9355 45.4042 28.9149 45.9542 30.4416C46.6737 32.4878 46.3583 34.9336 44.754 36.5763C43.453 37.9281 41.5582 38.6639 39.6683 39.0635C37.1542 39.5722 34.5451 39.5851 31.9919 39.3593C29.5911 39.1109 27.0927 38.5385 25.2393 37.0541C23.6545 35.8053 22.8804 33.8596 22.9572 31.9817C22.9756 31.6645 23.3236 31.4434 23.6584 31.4694C24.6176 31.4624 25.5769 31.46 26.5362 31.4706C26.9194 31.4457 27.2034 31.7462 27.2231 32.0739C27.4001 33.1252 27.8355 34.2287 28.8457 34.852C30.7954 35.9934 33.2417 35.9152 35.4741 35.9472C37.3236 35.8727 39.3998 35.8502 40.9091 34.7409C41.7054 34.1082 41.9413 33.0496 41.7261 32.139C41.493 31.3701 40.6067 31.0118 39.8455 30.7776C35.9395 29.6563 31.6998 30.0632 27.8316 28.7952C26.2612 28.2916 24.7426 27.3394 24.1393 25.8754C23.2974 23.8033 23.6832 21.2403 25.4556 19.6531C27.1838 18.0743 29.6785 17.4662 32.0504 17.2486V17.2488Z" fill="#8CC84B"/>
</svg>
