<svg width="55" height="55" viewBox="0 0 55 55" fill="none" xmlns="http://www.w3.org/2000/svg">
<path fill-rule="evenodd" clip-rule="evenodd" d="M27.5 35.2424C35.9377 35.2424 42.7778 31.7759 42.7778 27.5001C42.7778 23.2242 35.9377 19.7577 27.5 19.7577C19.0625 19.7577 12.2222 23.2242 12.2222 27.5001C12.2222 31.7759 19.0625 35.2424 27.5 35.2424Z" fill="#6E81B6"/>
<path fill-rule="evenodd" clip-rule="evenodd" d="M30.5963 30.0025L31.3541 26.1022C31.5251 25.2219 31.3829 24.5653 30.9316 24.1504C30.4943 23.7489 29.752 23.5537 28.6624 23.5537H27.35L27.7254 21.6213C27.7324 21.5853 27.7314 21.5482 27.7224 21.5127C27.7134 21.4772 27.6967 21.4441 27.6734 21.4158C27.6501 21.3875 27.6208 21.3647 27.5877 21.3491C27.5545 21.3334 27.5183 21.3253 27.4817 21.3253H25.6703C25.5513 21.3253 25.4492 21.4097 25.4264 21.5265L24.6215 25.6671C24.5484 25.2012 24.3681 24.8007 24.0795 24.4702C23.5482 23.862 22.7078 23.5537 21.5814 23.5537H18.0706C17.9516 23.5537 17.8494 23.6381 17.8267 23.7547L16.1979 32.1361C16.1836 32.209 16.2027 32.284 16.2499 32.3413C16.2971 32.3988 16.3673 32.4318 16.4417 32.4318H18.2673C18.3863 32.4318 18.4885 32.3474 18.5112 32.2305L18.9052 30.2033H20.2642C20.9773 30.2033 21.5766 30.1261 22.0444 29.9738C22.5227 29.8183 22.9629 29.5545 23.3509 29.1913C23.6644 28.9032 23.9234 28.5807 24.1227 28.2328L23.7974 29.9073C23.7832 29.9803 23.8022 30.0557 23.8495 30.1126C23.8966 30.17 23.967 30.2031 24.0413 30.2031H25.8526C25.9716 30.2031 26.0738 30.1187 26.0965 30.0021L26.9905 25.4015H28.2334C28.7631 25.4015 28.9183 25.507 28.9606 25.5522C28.9988 25.5936 29.0782 25.7394 28.989 26.1988L28.2685 29.9071C28.2616 29.9431 28.2627 29.9801 28.2718 30.0156C28.2808 30.0511 28.2976 30.0841 28.3209 30.1124C28.3442 30.1406 28.3734 30.1634 28.4065 30.179C28.4396 30.1947 28.4758 30.2028 28.5124 30.2029H30.3526C30.4102 30.203 30.466 30.1831 30.5105 30.1465C30.5549 30.1099 30.5853 30.059 30.5963 30.0025V30.0025ZM22.1983 26.7798C22.0845 27.3645 21.8702 27.7815 21.5609 28.0193C21.2468 28.2615 20.7445 28.3841 20.0678 28.3841H19.2587L19.8437 25.3732H20.8899C21.6585 25.3732 21.9681 25.5374 22.0924 25.6751C22.2648 25.8661 22.3014 26.2483 22.1983 26.7798V26.7798ZM38.2263 24.4702C37.6952 23.862 36.8548 23.5537 35.7284 23.5537H32.2176C32.0984 23.5537 31.9964 23.6381 31.9737 23.7547L30.345 32.1361C30.3306 32.209 30.3496 32.284 30.3969 32.3413C30.4442 32.3986 30.5146 32.4318 30.5885 32.4318H32.4143C32.5335 32.4318 32.6354 32.3474 32.6582 32.2305L33.0522 30.2033H34.4114C35.1247 30.2033 35.7234 30.1261 36.1914 29.9738C36.6698 29.8183 37.1101 29.5545 37.4978 29.1913C37.8215 28.894 38.0877 28.5598 38.2895 28.199C38.4912 27.8382 38.6359 27.4358 38.7203 27.0028C38.9277 25.9348 38.7617 25.0828 38.2263 24.4702V24.4702ZM36.4489 26.7798C36.3349 27.3645 36.1206 27.7815 35.8117 28.0193C35.4975 28.2615 34.9951 28.3841 34.3186 28.3841H33.5093L34.0942 25.3732H35.1405C35.9091 25.3732 36.2187 25.5374 36.3432 25.6751C36.5152 25.8661 36.552 26.2483 36.4489 26.7798V26.7798Z" fill="white"/>
<path fill-rule="evenodd" clip-rule="evenodd" d="M20.838 25.1248C21.5315 25.1248 21.9939 25.2528 22.225 25.5088C22.4559 25.7649 22.511 26.2046 22.3902 26.8274C22.2638 27.476 22.0207 27.9389 21.6604 28.2164C21.3002 28.4939 20.7519 28.6325 20.0159 28.6325H18.9052L19.5869 25.1248H20.838ZM16.3896 32.1834H18.2152L18.6484 29.9552H20.2122C20.9023 29.9552 21.47 29.8826 21.9156 29.7376C22.3612 29.5926 22.7663 29.3496 23.1308 29.0084C23.4367 28.7274 23.6843 28.4171 23.8738 28.0779C24.0632 27.7387 24.1977 27.3646 24.2773 26.9554C24.4706 25.9618 24.3248 25.188 23.8404 24.6337C23.3562 24.0793 22.5856 23.8022 21.5295 23.8022H18.0186L16.3896 32.1834V32.1834ZM25.6182 21.5739H27.4296L26.9965 23.8022H28.6104C29.6254 23.8022 30.3261 23.9792 30.7115 24.3333C31.0969 24.6875 31.2124 25.2615 31.0583 26.0549L30.3005 29.9552H28.4602L29.1807 26.2467C29.2626 25.8248 29.2327 25.5371 29.0902 25.3836C28.9478 25.2303 28.6446 25.1534 28.1813 25.1534H26.7336L25.8005 29.9552H23.9891L25.6182 21.5739ZM35.0886 25.1248C35.7821 25.1248 36.2444 25.2528 36.4757 25.5088C36.7066 25.7649 36.7615 26.2046 36.6406 26.8274C36.5146 27.476 36.2715 27.9389 35.9111 28.2164C35.551 28.4939 35.0025 28.6325 34.2669 28.6325H33.1562L33.8377 25.1248H35.0886V25.1248ZM30.6398 32.1834H32.4656L32.8987 29.9552H34.4625C35.1527 29.9552 35.7204 29.8826 36.166 29.7376C36.6116 29.5926 37.0168 29.3496 37.3813 29.0084C37.6872 28.7274 37.9348 28.4171 38.1241 28.0779C38.3135 27.7387 38.4482 27.3646 38.528 26.9554C38.721 25.9618 38.5753 25.188 38.091 24.6337C37.6065 24.0793 36.8361 23.8022 35.7799 23.8022H32.2691L30.6398 32.1834V32.1834Z" fill="black"/>
</svg>
