<svg width="59" height="55" viewBox="0 0 59 55" fill="none" xmlns="http://www.w3.org/2000/svg">
<path d="M29.2774 32.1311C32.0279 32.1311 34.2576 29.9748 34.2576 27.3148C34.2576 24.6549 32.0279 22.4986 29.2774 22.4986C26.527 22.4986 24.2973 24.6549 24.2973 27.3148C24.2973 29.9748 26.527 32.1311 29.2774 32.1311Z" fill="#61DAFB"/>
<path d="M29.2774 37.1823C44.0359 37.1823 56 32.7645 56 27.3148C56 21.8652 44.0359 17.4473 29.2774 17.4473C14.519 17.4473 2.55487 21.8652 2.55487 27.3148C2.55487 32.7645 14.519 37.1823 29.2774 37.1823Z" stroke="#61DAFB" stroke-width="5"/>
<path d="M20.4412 32.2486C27.8204 44.6093 37.7586 52.4207 42.6387 49.6959C47.5187 46.971 45.4928 34.7418 38.1136 22.3811C30.7343 10.0203 20.7962 2.20891 15.9161 4.93375C11.036 7.65858 13.0619 19.8878 20.4412 32.2486Z" stroke="#61DAFB" stroke-width="5"/>
<path d="M20.4412 22.3811C13.062 34.7418 11.036 46.971 15.9161 49.6959C20.7962 52.4207 30.7344 44.6093 38.1136 32.2486C45.4928 19.8878 47.5188 7.65858 42.6387 4.93375C37.7586 2.20891 27.8204 10.0203 20.4412 22.3811Z" stroke="#61DAFB" stroke-width="5"/>
</svg>
