<svg width="56" height="42" viewBox="0 0 56 42" fill="none" xmlns="http://www.w3.org/2000/svg">
<path d="M48.2204 24.1442C46.2667 24.1544 44.5688 24.6249 43.147 25.3205C42.6253 24.2874 42.1037 23.3667 42.0116 22.6916C41.9093 21.9039 41.7866 21.4231 41.9093 20.482C42.0321 19.5409 42.5844 18.2009 42.5742 18.0986C42.564 17.9963 42.4514 17.5155 41.3263 17.5053C40.2011 17.495 39.2294 17.7201 39.1169 18.0167C39.0044 18.3134 38.7896 18.9885 38.6464 19.6841C38.4521 20.7071 36.3961 24.359 35.2198 26.2719C34.8414 25.5251 34.514 24.8704 34.4424 24.3487C34.3401 23.5611 34.2174 23.0803 34.3401 22.1392C34.4629 21.1981 35.0152 19.858 35.005 19.7557C34.9948 19.6534 34.8823 19.1727 33.7571 19.1624C32.632 19.1522 31.6603 19.3772 31.5477 19.6739C31.4352 19.9706 31.3125 20.6662 31.0772 21.3413C30.842 22.0164 28.1109 28.1132 27.3949 29.6885C27.0267 30.4966 26.7096 31.1411 26.4846 31.581C26.4846 31.581 26.4743 31.6116 26.4437 31.6628C26.2493 32.0413 26.1368 32.2459 26.1368 32.2459C26.1368 32.2459 26.1368 32.2459 26.1368 32.2561C25.9834 32.5323 25.8197 32.788 25.7379 32.788C25.6765 32.788 25.564 32.0515 25.7583 31.049C26.1675 28.9315 27.1392 25.6377 27.129 25.5251C27.129 25.4638 27.3131 24.8909 26.4948 24.5943C25.697 24.2976 25.4106 24.7886 25.339 24.7886C25.2674 24.7886 25.2162 24.9625 25.2162 24.9625C25.2162 24.9625 26.1061 21.2595 23.5183 21.2595C21.9022 21.2595 19.6723 23.0292 18.5676 24.6249C17.8721 25.0034 16.3889 25.8116 14.8035 26.6811C14.2 27.0186 13.5761 27.3562 12.993 27.6733C12.9521 27.6324 12.9112 27.5812 12.8703 27.5403C9.74033 24.1953 3.95093 21.8323 4.19641 17.3416C4.28847 15.7049 4.85105 11.4085 15.3149 6.1915C23.9274 1.94629 30.7806 3.12267 31.9671 5.73118C33.6651 9.45469 28.295 16.3698 19.3961 17.3723C16.0002 17.7508 14.2205 16.4414 13.7704 15.9504C13.2999 15.4389 13.2283 15.4082 13.0544 15.5105C12.768 15.664 12.9521 16.1243 13.0544 16.3902C13.3203 17.0858 14.4148 18.3134 16.2662 18.9169C17.9028 19.4488 21.8817 19.7455 26.6994 17.8837C32.0899 15.7969 36.304 9.99685 35.0664 5.13787C33.8287 0.207286 25.6458 -1.41919 17.9028 1.33252C13.2999 2.96923 8.30832 5.54705 4.71807 8.9023C0.45274 12.8918 -0.222348 16.3596 0.053825 17.8121C1.046 22.9678 8.15489 26.323 10.9984 28.8088C10.8552 28.8906 10.7223 28.9622 10.6098 29.0236C9.18798 29.7294 3.76681 32.563 2.41664 35.5602C0.882343 38.9564 2.66212 41.391 3.83841 41.7183C7.49003 42.731 11.2439 40.9102 13.259 37.9027C15.274 34.8953 15.0285 30.9876 14.0977 29.1975C14.0875 29.177 14.0773 29.1566 14.0568 29.1361C14.425 28.9213 14.8035 28.6963 15.1717 28.4814C15.898 28.0518 16.614 27.6529 17.2277 27.3255C16.8799 28.2768 16.6242 29.4123 16.5014 31.049C16.348 32.9722 17.1356 35.4681 18.1687 36.4502C18.629 36.8798 19.1711 36.89 19.5189 36.89C20.7259 36.89 21.268 35.8875 21.8715 34.7009C22.6079 33.2484 23.2728 31.5605 23.2728 31.5605C23.2728 31.5605 22.4443 36.1228 24.6946 36.1228C25.5129 36.1228 26.3414 35.059 26.7096 34.5168C26.7096 34.527 26.7096 34.527 26.7096 34.527C26.7096 34.527 26.7301 34.4963 26.771 34.4247C26.8528 34.2918 26.9039 34.2099 26.9039 34.2099C26.9039 34.2099 26.9039 34.1997 26.9039 34.1895C27.2313 33.6166 27.9677 32.3175 29.0622 30.1591C30.4737 27.3767 31.8341 23.8987 31.8341 23.8987C31.8341 23.8987 31.9569 24.7477 32.3763 26.1594C32.6217 26.9879 33.1332 27.8984 33.5423 28.7781C33.215 29.2384 33.0104 29.4942 33.0104 29.4942C33.0104 29.4942 33.0104 29.4942 33.0207 29.5044C32.7547 29.8522 32.4683 30.2307 32.1512 30.5989C31.0363 31.9288 29.7066 33.4529 29.5225 33.8928C29.3077 34.4145 29.3588 34.793 29.768 35.0999C30.0646 35.3249 30.5965 35.3556 31.1386 35.3249C32.141 35.2533 32.8468 35.0078 33.1945 34.8544C33.7367 34.66 34.3708 34.3634 34.9641 33.9235C36.0586 33.1154 36.7234 31.9594 36.662 30.4353C36.6314 29.5964 36.3552 28.7576 36.0176 27.97C36.1199 27.8268 36.212 27.6835 36.3143 27.5403C38.0429 25.0137 39.3829 22.2415 39.3829 22.2415C39.3829 22.2415 39.5056 23.0905 39.925 24.5022C40.1295 25.2183 40.5489 25.9957 40.9171 26.7527C39.2908 28.0723 38.2884 29.6067 37.9304 30.6092C37.286 32.4709 37.7872 33.3097 38.7385 33.5041C39.1681 33.5962 39.7818 33.3916 40.2318 33.1972C40.8046 33.0131 41.4797 32.696 42.1241 32.2254C43.2186 31.4173 44.2721 30.292 44.2108 28.7679C44.1801 28.0723 43.996 27.3869 43.7402 26.722C45.1211 26.1491 46.9009 25.832 49.1716 26.098C54.0405 26.6708 55.002 29.709 54.8178 30.9876C54.6337 32.2663 53.6109 32.9619 53.2733 33.1767C52.9358 33.3916 52.8233 33.4632 52.8539 33.6166C52.8949 33.8417 53.0585 33.8314 53.3449 33.7905C53.7438 33.7189 55.9021 32.7573 55.9941 30.4046C56.1476 27.3971 53.2835 24.1135 48.2204 24.1442ZM10.6609 36.8082C9.04478 38.5677 6.79448 39.2326 5.82276 38.67C4.77945 38.0664 5.18859 35.4681 7.17294 33.6064C8.37992 32.4709 9.93467 31.4173 10.9678 30.7728C11.203 30.6296 11.5508 30.425 11.9702 30.1693C12.0418 30.1284 12.0827 30.1079 12.0827 30.1079C12.1645 30.0568 12.2463 30.0056 12.3282 29.9545C13.0544 32.6141 12.3589 34.9567 10.6609 36.8082ZM22.4238 28.8088C21.8612 30.1795 20.6849 33.6882 19.9689 33.4939C19.3552 33.3302 18.9768 30.6705 19.8462 28.0416C20.286 26.722 21.2168 25.1466 21.7589 24.5329C22.6386 23.5509 23.6103 23.2235 23.8456 23.6225C24.1422 24.1442 22.7716 27.9495 22.4238 28.8088ZM32.1308 33.4529C31.8955 33.5757 31.6705 33.6575 31.5682 33.5962C31.4966 33.5552 31.6705 33.3916 31.6705 33.3916C31.6705 33.3916 32.8877 32.0822 33.3684 31.4889C33.6446 31.1411 33.9719 30.7319 34.3197 30.2716C34.3197 30.3125 34.3197 30.3637 34.3197 30.4046C34.3197 31.9697 32.8059 33.0233 32.1308 33.4529ZM39.6181 31.7446C39.4442 31.6219 39.4749 31.2127 40.0579 29.934C40.283 29.4328 40.8149 28.594 41.7252 27.7858C41.8275 28.1132 41.8991 28.4303 41.8889 28.7269C41.8786 30.7012 40.4671 31.4377 39.6181 31.7446Z" fill="#CD6799"/>
</svg>
