<svg xmlns="http://www.w3.org/2000/svg" version="1.1" xmlns:xlink="http://www.w3.org/1999/xlink" width="1000"
    height="1000" viewBox="0 0 1000 1000">
    <rect width="1000" height="1000" fill="#010536"></rect>
    <g transform="matrix(0.7,0,0,0.7,149.57575757575762,366.9840219553089)"><svg viewBox="0 0 396 151"
            data-background-color="#010536" preserveAspectRatio="xMidYMid meet" height="381" width="1000"
            xmlns="http://www.w3.org/2000/svg" xmlns:xlink="http://www.w3.org/1999/xlink">
            <g id="tight-bounds" transform="matrix(1,0,0,1,0.23999999999995225,-0.18911629265708996)"><svg
                    viewBox="0 0 395.52 151.37823258531418" height="151.37823258531418" width="395.52">
                    <g><svg viewBox="0 0 651.6822125159999 249.41975510204082" height="151.37823258531418"
                            width="395.52">
                            <g transform="matrix(1,0,0,1,0,5.972682424409925)"><svg
                                    viewBox="0 0 395.52 237.47439025322097" height="237.47439025322097" width="395.52">
                                    <g><svg viewBox="0 0 395.52 237.47439025322097" height="237.47439025322097"
                                            width="395.52">
                                            <g><svg viewBox="0 0 395.52 170.18801928" height="170.18801928"
                                                    width="395.52">
                                                    <rect width="395.52" height="170.18801928" x="0" y="0" opacity="1"
                                                        fill="#fbfbf8" data-fill-palette-color="tertiary"></rect>
                                                    <g transform="matrix(1,0,0,1,23.461705032,23.461705032)"><svg
                                                            width="348.596589936"
                                                            viewBox="3.0999999046325684 -34.25 97.8499984741211 34.599998474121094"
                                                            height="123.264609216" data-palette-color="#010536">
                                                            <path
                                                                d="M22.65 0L9.6 0Q7.3-0.05 5.9-0.73 4.5-1.4 3.8-2.95 3.1-4.5 3.1-7.1L3.1-7.1 3.1-28.25Q3.1-30.9 4.65-32.58 6.2-34.25 8.75-34.25L8.75-34.25Q11.75-34.25 13.18-33.15 14.6-32.05 14.6-28.7L14.6-28.7 14.6-8.65 23.15-8.65Q26.05-8.65 27.23-7.8 28.4-6.95 28.4-4.3L28.4-4.3Q28.4-1.6 27.05-0.8 25.7 0 22.65 0L22.65 0ZM48.3-26.1L48.3-26.1Q46.15-26.1 45.12-24.85 44.1-23.6 44.1-20.4L44.1-20.4 44.1-14.5 52.4-14.5 52.4-20.5Q52.4-22.6 51.9-23.88 51.4-25.15 50.52-25.63 49.65-26.1 48.3-26.1ZM52.4-4.95L52.4-7.6 44.1-7.6 44.1-4.95Q44.1-2.4 42.75-1.2 41.4 0 38.1 0L38.1 0Q36.7 0 35.8-0.4 34.9-0.8 34.22-1.75 33.55-2.7 33.22-4.53 32.9-6.35 32.72-8.93 32.55-11.5 32.55-15.45L32.55-15.45Q32.55-18.9 33.27-21.78 34-24.65 35.22-26.65 36.45-28.65 38-30.18 39.55-31.7 41.37-32.55 43.2-33.4 44.92-33.83 46.65-34.25 48.4-34.25L48.4-34.25Q50.5-34.25 52.55-33.68 54.6-33.1 56.7-31.7 58.8-30.3 60.37-28.23 61.95-26.15 62.95-22.85 63.95-19.55 63.95-15.45L63.95-15.45Q63.95-8.85 63.47-5.68 63-2.5 61.87-1.25 60.75 0 58.4 0L58.4 0Q55.1 0 53.75-1.2 52.4-2.4 52.4-4.95L52.4-4.95ZM84.59-8.15L84.59-8.15Q87.15-8.15 87.92-9.45 88.7-10.75 88.7-13.9L88.7-13.9Q88.7-15.4 88.72-20.83 88.75-26.25 88.75-29.1L88.75-29.1Q88.75-31.75 90.02-32.98 91.3-34.2 94.4-34.2L94.4-34.2Q97.15-34.2 98.5-32.83 99.84-31.45 100.4-27.83 100.95-24.2 100.95-16.8L100.95-16.8Q100.95-13.65 100.22-11.05 99.5-8.45 98.22-6.63 96.95-4.8 95.34-3.43 93.75-2.05 91.9-1.25 90.05-0.45 88.25-0.05 86.45 0.35 84.7 0.35L84.7 0.35Q82.55 0.35 80.37-0.18 78.2-0.7 75.97-2 73.75-3.3 72.05-5.18 70.34-7.05 69.27-10.08 68.2-13.1 68.2-16.8L68.2-16.8Q68.2-24.2 68.8-27.83 69.4-31.45 70.84-32.83 72.3-34.2 75.3-34.2L75.3-34.2Q78.09-34.2 79.25-32.98 80.4-31.75 80.4-29.1L80.4-29.1Q80.4-26.2 80.42-20.83 80.45-15.45 80.45-13.95L80.45-13.95Q80.45-12.65 80.52-11.88 80.59-11.1 80.82-10.3 81.05-9.5 81.5-9.08 81.95-8.65 82.7-8.4 83.45-8.15 84.59-8.15Z"
                                                                opacity="1" transform="matrix(1,0,0,1,0,0)"
                                                                fill="#010536" class="undefined-text-0"
                                                                data-fill-palette-color="quaternary" id="text-0"></path>
                                                        </svg></g>
                                                </svg></g>
                                            <g transform="matrix(1,0,0,1,0,181.918871796)"><svg
                                                    viewBox="0 0 395.52 55.555518457220984" height="55.555518457220984"
                                                    width="395.52">
                                                    <g transform="matrix(1,0,0,1,0,0)"><svg width="395.52"
                                                            viewBox="3.0299999713897705 -37.5 339.239990234375 47.65999984741211"
                                                            height="55.555518457220984" data-palette-color="#fbfbf8">
                                                            <path
                                                                d="M21.61-11.28L26.12-11.28Q25.83-5.57 22.91-2.54 20 0.49 14.67 0.49L14.67 0.49Q9.33 0.49 6.18-3.58 3.03-7.64 3.03-14.6L3.03-14.6 3.03-21.04Q3.03-27.98 6.26-32.01 9.5-36.04 15.09-36.04L15.09-36.04Q20.24-36.04 23.06-32.95 25.88-29.86 26.12-24.12L26.12-24.12 21.61-24.12Q21.31-28.47 19.78-30.32 18.24-32.18 15.09-32.18L15.09-32.18Q11.45-32.18 9.5-29.33 7.54-26.49 7.54-21L7.54-21 7.54-14.48Q7.54-9.08 9.36-6.2 11.18-3.32 14.67-3.32 18.16-3.32 19.7-5.05 21.24-6.79 21.61-11.28L21.61-11.28ZM30.66-11.55L30.66-14.43Q30.66-20.19 33.46-23.55 36.25-26.9 40.84-26.9 45.43-26.9 48.23-23.63 51.02-20.36 51.1-14.72L51.1-14.72 51.1-11.94Q51.1-6.2 48.31-2.86 45.53 0.49 40.89 0.49L40.89 0.49Q36.3 0.49 33.53-2.76 30.76-6.01 30.66-11.55L30.66-11.55ZM34.98-14.45L34.98-11.94Q34.98-7.86 36.58-5.53 38.18-3.2 40.89-3.2L40.89-3.2Q46.6-3.2 46.77-11.45L46.77-11.45 46.77-14.43Q46.77-18.48 45.16-20.84 43.55-23.19 40.84-23.19L40.84-23.19Q38.18-23.19 36.58-20.84 34.98-18.48 34.98-14.45L34.98-14.45ZM55.76-11.69L55.76-14.4Q55.76-20.51 58.04-23.71 60.32-26.9 64.59-26.9L64.59-26.9Q68.38-26.9 70.5-23.83L70.5-23.83 70.5-37.5 74.82-37.5 74.82 0 70.87 0 70.65-2.83Q68.53 0.49 64.57 0.49L64.57 0.49Q60.47 0.49 58.14-2.7 55.81-5.88 55.76-11.69L55.76-11.69ZM60.08-14.58L60.08-11.94Q60.08-7.5 61.4-5.41 62.71-3.32 65.69-3.32L65.69-3.32Q68.92-3.32 70.5-6.57L70.5-6.57 70.5-19.9Q68.84-23.07 65.72-23.07L65.72-23.07Q62.74-23.07 61.42-20.98 60.1-18.9 60.08-14.58L60.08-14.58ZM90.91 0.49L90.91 0.49Q85.98 0.49 83.34-2.45 80.71-5.4 80.66-11.08L80.66-11.08 80.66-14.28Q80.66-20.19 83.23-23.55 85.81-26.9 90.42-26.9L90.42-26.9Q95.06-26.9 97.36-23.95 99.65-21 99.7-14.75L99.7-14.75 99.7-11.91 84.95-11.91 84.95-11.3Q84.95-7.06 86.55-5.13 88.15-3.2 91.15-3.2L91.15-3.2Q93.06-3.2 94.51-3.92 95.96-4.64 97.23-6.2L97.23-6.2 99.48-3.47Q96.67 0.49 90.91 0.49ZM90.42-23.19L90.42-23.19Q87.74-23.19 86.44-21.35 85.15-19.51 84.98-15.63L84.98-15.63 95.38-15.63 95.38-16.21Q95.21-19.97 94.02-21.58 92.84-23.19 90.42-23.19ZM124.33-16.94L124.33-13.26 114.25-13.26 114.25-16.94 124.33-16.94ZM157.82-20.26L157.82-16.43 145.25-16.43 145.25-3.83 159.89-3.83 159.89 0 140.78 0 140.78-35.55 159.65-35.55 159.65-31.69 145.25-31.69 145.25-20.26 157.82-20.26ZM183.09 0L178.59 0Q178.2-0.85 178.03-2.88L178.03-2.88Q175.74 0.49 172.17 0.49L172.17 0.49Q168.58 0.49 166.57-1.53 164.56-3.54 164.56-7.2L164.56-7.2Q164.56-11.23 167.29-13.6 170.02-15.97 174.78-16.02L174.78-16.02 177.96-16.02 177.96-18.82Q177.96-21.19 176.91-22.19 175.86-23.19 173.71-23.19L173.71-23.19Q171.76-23.19 170.54-22.03 169.32-20.87 169.32-19.09L169.32-19.09 164.99-19.09Q164.99-21.12 166.19-22.96 167.39-24.8 169.41-25.85 171.44-26.9 173.93-26.9L173.93-26.9Q177.98-26.9 180.09-24.89 182.21-22.88 182.26-19.02L182.26-19.02 182.26-5.69Q182.28-2.64 183.09-0.39L183.09-0.39 183.09 0ZM172.83-3.44L172.83-3.44Q174.42-3.44 175.86-4.32 177.3-5.2 177.96-6.52L177.96-6.52 177.96-12.82 175.52-12.82Q172.44-12.77 170.66-11.44 168.88-10.11 168.88-7.71L168.88-7.71Q168.88-5.47 169.78-4.46 170.68-3.44 172.83-3.44ZM190.31-32.81L194.61-32.81 194.61-26.42 198.59-26.42 198.59-22.92 194.61-22.92 194.61-6.54Q194.61-4.98 195.12-4.17 195.63-3.37 196.88-3.37L196.88-3.37Q197.73-3.37 198.61-3.66L198.61-3.66 198.56 0Q197.1 0.49 195.56 0.49L195.56 0.49Q193 0.49 191.65-1.34 190.31-3.17 190.31-6.52L190.31-6.52 190.31-22.92 186.28-22.92 186.28-26.42 190.31-26.42 190.31-32.81ZM223.17-16.94L223.17-13.26 213.08-13.26 213.08-16.94 223.17-16.94ZM255.14-8.98L255.14-8.98Q255.14-11.65 253.7-13.06 252.26-14.48 248.5-15.82 244.74-17.16 242.75-18.64 240.76-20.12 239.77-22.01 238.79-23.9 238.79-26.34L238.79-26.34Q238.79-30.57 241.61-33.3 244.43-36.04 248.99-36.04L248.99-36.04Q252.12-36.04 254.56-34.63 257-33.23 258.32-30.74 259.64-28.25 259.64-25.27L259.64-25.27 255.14-25.27Q255.14-28.56 253.56-30.37 251.97-32.18 248.99-32.18L248.99-32.18Q246.28-32.18 244.79-30.66 243.3-29.15 243.3-26.42L243.3-26.42Q243.3-24.17 244.91-22.66 246.53-21.14 249.89-19.95L249.89-19.95Q255.14-18.21 257.4-15.67 259.66-13.13 259.66-9.03L259.66-9.03Q259.66-4.71 256.85-2.11 254.04 0.49 249.21 0.49L249.21 0.49Q246.11 0.49 243.49-0.87 240.86-2.22 239.36-4.68 237.86-7.13 237.86-10.3L237.86-10.3 242.35-10.3Q242.35-7.01 244.19-5.18 246.04-3.34 249.21-3.34L249.21-3.34Q252.16-3.34 253.65-4.86 255.14-6.37 255.14-8.98ZM269.57-37.5L269.57 0 265.25 0 265.25-37.5 269.57-37.5ZM285.8 0.49L285.8 0.49Q280.87 0.49 278.23-2.45 275.6-5.4 275.55-11.08L275.55-11.08 275.55-14.28Q275.55-20.19 278.12-23.55 280.7-26.9 285.31-26.9L285.31-26.9Q289.95-26.9 292.25-23.95 294.54-21 294.59-14.75L294.59-14.75 294.59-11.91 279.85-11.91 279.85-11.3Q279.85-7.06 281.44-5.13 283.04-3.2 286.05-3.2L286.05-3.2Q287.95-3.2 289.4-3.92 290.86-4.64 292.13-6.2L292.13-6.2 294.37-3.47Q291.56 0.49 285.8 0.49ZM285.31-23.19L285.31-23.19Q282.63-23.19 281.33-21.35 280.04-19.51 279.87-15.63L279.87-15.63 290.27-15.63 290.27-16.21Q290.1-19.97 288.92-21.58 287.73-23.19 285.31-23.19ZM309.21 0.49L309.21 0.49Q304.28 0.49 301.64-2.45 299.01-5.4 298.96-11.08L298.96-11.08 298.96-14.28Q298.96-20.19 301.53-23.55 304.11-26.9 308.72-26.9L308.72-26.9Q313.36-26.9 315.66-23.95 317.95-21 318-14.75L318-14.75 318-11.91 303.26-11.91 303.26-11.3Q303.26-7.06 304.86-5.13 306.45-3.2 309.46-3.2L309.46-3.2Q311.36-3.2 312.81-3.92 314.27-4.64 315.54-6.2L315.54-6.2 317.78-3.47Q314.97 0.49 309.21 0.49ZM308.72-23.19L308.72-23.19Q306.04-23.19 304.75-21.35 303.45-19.51 303.28-15.63L303.28-15.63 313.68-15.63 313.68-16.21Q313.51-19.97 312.33-21.58 311.14-23.19 308.72-23.19ZM342.27-14.82L342.27-11.94Q342.27-5.66 340.01-2.59 337.75 0.49 333.62 0.49L333.62 0.49Q329.65 0.49 327.5-2.51L327.5-2.51 327.5 10.16 323.2 10.16 323.2-26.42 327.11-26.42 327.33-23.49Q329.5-26.9 333.55-26.9L333.55-26.9Q337.9-26.9 340.05-23.88 342.19-20.85 342.27-14.82L342.27-14.82ZM337.97-11.77L337.97-14.4Q337.97-18.85 336.6-20.96 335.24-23.07 332.21-23.07L332.21-23.07Q329.11-23.07 327.5-19.97L327.5-19.97 327.5-6.23Q329.08-3.2 332.26-3.2L332.26-3.2Q335.19-3.2 336.57-5.31 337.95-7.42 337.97-11.77L337.97-11.77Z"
                                                                opacity="1" transform="matrix(1,0,0,1,0,0)"
                                                                fill="#fbfbf8" class="undefined-text-1"
                                                                data-fill-palette-color="secondary" id="text-1"></path>
                                                        </svg></g>
                                                </svg></g>
                                        </svg></g>
                                </svg></g>
                            <g transform="matrix(1,0,0,1,407.250852516,0)"><svg
                                    viewBox="0 0 244.43136 249.41975510204082" height="249.41975510204082"
                                    width="244.43136">
                                    <g><svg xmlns="http://www.w3.org/2000/svg"
                                            xmlns:xlink="http://www.w3.org/1999/xlink" version="1.1" x="0" y="0"
                                            viewBox="0 0 98 100" enable-background="new 0 0 100 100"
                                            xml:space="preserve" height="249.41975510204082" width="244.43136"
                                            class="icon-icon-0" data-fill-palette-color="accent" id="icon-0">
                                            <g fill="#ffff00" data-fill-palette-color="accent">
                                                <circle cx="49.494" cy="6.603" r="2.1" fill="#ffff00"
                                                    data-fill-palette-color="accent"></circle>
                                                <path
                                                    d="M18.267 34.851l6.123-7.465c0.518-0.63 0.425-1.56-0.204-2.076-0.629-0.517-1.56-0.424-2.076 0.204l-6.972 8.499c-0.481 0.586-0.439 1.443 0.098 1.979l7.593 7.591c0.288 0.289 0.665 0.433 1.042 0.433 0.378 0 0.755-0.144 1.043-0.433 0.576-0.576 0.576-1.51 0-2.086L18.267 34.851z"
                                                    fill="#ffff00" data-fill-palette-color="accent"></path>
                                                <path
                                                    d="M44.093 32.998L36.5 25.406c-0.576-0.576-1.509-0.576-2.086 0-0.576 0.577-0.576 1.511 0 2.087l6.647 6.646-6.123 7.465c-0.516 0.63-0.424 1.56 0.206 2.077 0.274 0.225 0.605 0.334 0.935 0.334 0.427 0 0.851-0.185 1.142-0.54l6.97-8.499C44.671 34.39 44.63 33.534 44.093 32.998z"
                                                    fill="#ffff00" data-fill-palette-color="accent"></path>
                                                <path
                                                    d="M88.568 0H9.432C4.491 0 0 4.02 0 8.96v55.608C0 69.51 4.491 74 9.432 74h31.279c0.159 2 0.311 8.268-0.323 10.369-1.163 1.729-13.49 5.365-24.164 7.854C15.56 92.379 15 92.854 15 93.537v4.992c0 0.813 0.835 1.471 1.647 1.471h64.707C82.166 100 83 99.342 83 98.529v-4.992c0-0.684-0.559-1.277-1.225-1.434-10.732-2.486-23.082-6.008-24.202-7.625C56.896 82.277 56.925 76 57.039 74h31.529C93.508 74 98 69.51 98 64.568V8.96C98 4.02 93.508 0 88.568 0zM80 94.703V97H18v-2.298c11-2.638 24.097-6.121 25.095-9.362C43.963 82.512 43.796 76 43.657 74h10.438c-0.104 2-0.188 8.514 0.682 11.343C55.773 88.583 69 92.064 80 94.703zM95 64.98c0 3.326-3.695 6.02-7.02 6.02H9.02C5.695 71 3 68.307 3 64.98V9.019C3 5.695 5.695 3 9.02 3h78.96C91.305 3 95 5.695 95 9.019V64.98z"
                                                    fill="#ffff00" data-fill-palette-color="accent"></path>
                                                <path
                                                    d="M88.529 12H9.471C8.659 12 8 12.659 8 13.471v44.058C8 58.342 8.659 59 9.471 59h79.058C89.342 59 90 58.342 90 57.529V13.471C90 12.659 89.342 12 88.529 12zM11 15h37v41H11V15zM87 56H51V15h36V56z"
                                                    fill="#ffff00" data-fill-palette-color="accent"></path>
                                                <path
                                                    d="M54.5 36h29c0.828 0 1.5-0.671 1.5-1.5v-16c0-0.829-0.672-1.5-1.5-1.5h-29c-0.828 0-1.5 0.671-1.5 1.5v16C53 35.329 53.672 36 54.5 36zM56 20h26v13H56V20z"
                                                    fill="#ffff00" data-fill-palette-color="accent"></path>
                                                <path
                                                    d="M83 39H55c-0.828 0-1.5 0.671-1.5 1.5S54.172 42 55 42h28c0.828 0 1.5-0.671 1.5-1.5S83.828 39 83 39z"
                                                    fill="#ffff00" data-fill-palette-color="accent"></path>
                                                <path
                                                    d="M83 45H55c-0.828 0-1.5 0.671-1.5 1.5S54.172 48 55 48h28c0.828 0 1.5-0.671 1.5-1.5S83.828 45 83 45z"
                                                    fill="#ffff00" data-fill-palette-color="accent"></path>
                                                <path
                                                    d="M83 51H55c-0.828 0-1.5 0.672-1.5 1.5S54.172 54 55 54h28c0.828 0 1.5-0.672 1.5-1.5S83.828 51 83 51z"
                                                    fill="#ffff00" data-fill-palette-color="accent"></path>
                                            </g>
                                        </svg></g>
                                </svg></g>
                        </svg></g>
                    <defs></defs>
                </svg>
                <rect width="395.52" height="151.37823258531418" fill="none" stroke="none" visibility="hidden"></rect>
            </g>
        </svg></g>
</svg>